<?xml version="1.0" standalone="no"?>
<!DOCTYPE svg PUBLIC "-//W3C//DTD SVG 20010904//EN"
 "http://www.w3.org/TR/2001/REC-SVG-20010904/DTD/svg10.dtd">
<svg version="1.0" xmlns="http://www.w3.org/2000/svg"
 width="300.000000pt" height="400.000000pt" viewBox="0 0 300.000000 400.000000"
 preserveAspectRatio="xMidYMid meet">

<g transform="translate(0.000000,400.000000) scale(0.100000,-0.100000)"
fill="#000000" stroke="none">
<path d="M825 3948 c64 -90 135 -174 165 -197 l29 -21 -20 -35 c-12 -19 -27
-35 -34 -35 -8 0 -61 -31 -119 -70 -63 -42 -115 -70 -131 -70 -34 0 -106 -37
-102 -53 1 -6 -4 -11 -12 -9 -13 3 -30 -14 -31 -29 0 -4 10 -10 23 -13 12 -3
51 -32 85 -65 58 -53 63 -60 51 -79 -12 -18 -16 -19 -38 -7 -14 7 -37 26 -50
41 -17 19 -26 24 -29 15 -2 -7 0 -16 6 -20 5 -3 17 -23 25 -43 16 -37 14 -52
-14 -145 -5 -17 -12 -78 -16 -135 -6 -115 -26 -174 -48 -145 -6 9 -24 74 -39
144 -31 141 -36 156 -46 127 -6 -16 -13 -9 -40 39 -18 32 -35 55 -38 53 -3 -3
11 -41 31 -83 20 -43 39 -93 42 -112 3 -18 12 -46 20 -62 24 -46 17 -46 -23 0
-20 24 -56 65 -80 90 -63 66 -34 14 46 -84 92 -113 91 -111 57 -90 -70 45
-135 97 -134 108 0 9 2 9 6 -1 2 -7 14 -17 26 -24 21 -11 21 -11 4 13 -9 13
-25 39 -34 57 -19 36 -33 27 -33 -21 0 -20 11 -40 34 -63 18 -18 31 -36 28
-39 -3 -3 2 -5 10 -5 9 0 18 -3 20 -7 1 -5 22 -25 46 -45 23 -21 40 -38 38
-38 -3 0 -1 -13 4 -30 5 -16 6 -30 4 -30 -26 0 -121 87 -152 138 l-20 34 -6
-29 c-8 -37 -6 -90 6 -130 6 -20 6 -45 -1 -67 -5 -20 -6 -37 -3 -37 4 -1 18
-3 32 -4 14 -1 33 -6 44 -10 18 -8 18 -7 0 25 -53 94 -73 134 -70 137 6 6 168
-80 172 -92 3 -6 -3 -42 -12 -80 -9 -39 -17 -84 -19 -102 -1 -18 -7 -39 -14
-47 -6 -7 -13 -28 -14 -45 -1 -17 -4 -31 -7 -31 -7 0 -131 29 -151 36 -14 4
-18 -12 -29 -107 -6 -61 -18 -147 -25 -191 -14 -87 -9 -120 23 -166 11 -15 27
-54 35 -85 20 -76 37 -99 99 -142 60 -40 109 -46 130 -17 18 25 117 112 127
112 5 0 3 -25 -6 -56 -18 -71 -11 -81 13 -17 17 48 44 88 44 66 0 -6 -6 -14
-12 -17 -7 -3 -3 -3 9 0 26 6 25 9 48 -146 9 -58 25 -145 35 -195 11 -49 24
-115 29 -146 11 -71 52 -231 61 -244 5 -5 18 -41 29 -80 12 -38 28 -79 36 -91
20 -31 105 -86 121 -80 21 8 17 22 -21 76 -30 43 -34 55 -29 89 6 36 1 57 -51
250 -12 43 -12 57 -3 62 9 6 6 14 -10 32 -25 27 -32 58 -6 33 8 -9 17 -16 19
-16 4 0 -11 50 -25 85 -19 48 -61 207 -76 290 -11 57 -18 157 -19 275 -2 102
-4 187 -5 190 -1 3 -5 -8 -9 -24 -3 -16 -12 -31 -20 -34 -16 -5 -6 34 15 59
20 23 18 50 -3 43 -11 -4 -14 -2 -8 3 12 9 41 93 37 106 -1 4 2 7 7 7 11 0 32
76 31 115 -2 47 5 88 19 113 12 22 11 23 -8 13 -27 -15 -28 -15 -40 20 -13 36
-1 59 30 59 26 0 24 12 -6 40 -24 22 -34 51 -17 49 30 -5 33 5 23 88 0 6 -10
9 -21 6 -11 -3 -20 0 -20 6 0 32 25 151 32 151 4 0 8 8 8 19 0 10 9 21 19 24
31 8 33 -4 7 -32 -17 -19 -22 -32 -16 -46 7 -19 8 -18 21 8 16 36 41 31 53
-11 6 -21 14 -31 23 -28 7 3 13 -2 14 -12 0 -9 3 -12 5 -6 3 7 -5 29 -17 50
-13 24 -24 64 -27 104 -3 40 -10 68 -18 73 -17 10 -18 49 -3 64 8 8 8 17 0 32
-15 27 -4 67 23 89 12 9 28 32 34 51 7 19 31 51 55 72 23 21 37 39 30 39 -8 0
-11 13 -9 35 2 26 13 42 44 67 23 18 41 41 41 51 1 9 6 17 12 17 5 0 7 5 4 11
-10 16 35 59 62 59 44 0 43 -52 -2 -105 -25 -30 -84 -123 -113 -180 -9 -16
-26 -45 -39 -64 -28 -42 -29 -61 -3 -84 23 -19 34 -22 25 -7 -9 15 41 97 70
116 13 8 21 22 19 29 -6 15 151 183 189 204 37 20 75 85 103 172 14 46 32 98
40 116 8 17 14 39 13 50 0 13 -3 11 -9 -7 -4 -14 -15 -38 -24 -55 -9 -16 -16
-37 -16 -47 0 -9 -5 -18 -11 -20 -5 -2 -11 -12 -13 -21 -1 -10 -7 -22 -12 -25
-5 -4 -11 -16 -12 -27 -2 -11 -7 -22 -11 -25 -4 -3 -11 -14 -15 -25 -4 -11
-10 -15 -14 -10 -9 13 -35 18 -28 6 13 -21 -21 -16 -41 6 -12 12 -27 23 -33
23 -6 0 -8 11 -4 28 4 15 7 29 6 32 0 23 -3 30 -12 25 -18 -11 -50 6 -50 25 0
31 39 88 71 102 16 7 29 16 29 20 0 14 -95 8 -114 -7 -23 -17 -40 -20 -31 -5
7 12 -24 2 -44 -14 -11 -9 -13 -7 -7 12 l7 22 -186 0 -187 0 37 -52z m439 -3
c-4 -9 -16 -21 -28 -27 -20 -11 -20 -10 -6 8 13 17 31 33 37 34 1 0 0 -7 -3
-15z m-34 0 c0 -2 -10 -10 -22 -16 -21 -11 -22 -11 -9 4 13 16 31 23 31 12z
m-373 -484 c31 -60 32 -147 1 -186 -94 -120 -166 -133 -108 -20 11 22 20 35
20 30 1 -6 12 10 25 35 26 48 30 91 16 153 -8 32 -7 38 7 35 8 -2 26 -23 39
-47z m-43 -1181 c-10 -16 -19 -28 -21 -26 -5 5 22 56 30 56 5 0 0 -13 -9 -30z
m-42 -212 c-7 -7 -12 -8 -12 -2 0 14 12 26 19 19 2 -3 -1 -11 -7 -17z"/>
<path d="M1649 3868 c7 -10 10 -18 6 -18 -4 0 4 -15 17 -32 14 -18 27 -40 30
-48 3 -8 6 13 6 48 0 64 -2 69 -28 52 -9 -6 -20 -5 -30 3 -13 11 -13 10 -1 -5z"/>
<path d="M1680 3683 c-7 -21 -16 -42 -21 -47 -5 -6 -9 -18 -9 -28 0 -10 -4
-18 -10 -18 -5 0 -10 -7 -10 -15 0 -8 -11 -25 -25 -37 -13 -11 -22 -25 -19
-29 2 -4 -5 -6 -16 -4 -11 2 -18 0 -15 -6 4 -5 1 -9 -5 -9 -7 0 -9 -7 -6 -16
3 -9 2 -12 -5 -9 -6 4 -9 1 -8 -6 3 -15 -21 -59 -32 -59 -14 0 0 50 20 71 14
16 18 26 11 34 -6 7 -7 21 -3 30 4 13 3 16 -5 11 -8 -4 -10 -2 -6 7 3 8 1 18
-5 22 -6 3 -11 18 -11 33 0 15 -5 34 -10 42 -8 13 -10 13 -10 -1 0 -9 -27 -47
-60 -84 -33 -37 -60 -71 -60 -76 0 -4 9 -11 21 -14 17 -6 20 -13 17 -46 -2
-21 0 -39 3 -39 4 0 13 -16 19 -35 10 -29 9 -40 -7 -67 -10 -18 -21 -34 -25
-36 -5 -2 -8 -13 -8 -23 0 -13 29 18 78 83 43 57 107 140 141 185 49 63 68 98
82 149 20 72 19 101 -1 37z"/>
<path d="M1685 3347 c33 -20 53 -25 114 -25 89 0 82 14 -14 27 -39 6 -86 13
-105 17 l-35 6 40 -25z"/>
<path d="M451 3330 c0 -14 7 -54 14 -90 l15 -65 -6 75 c-5 72 -24 136 -23 80z"/>
<path d="M1211 3298 c-23 -28 -39 -53 -36 -56 6 -6 94 88 95 101 1 19 -22 2
-59 -45z"/>
<path d="M1300 3230 c-7 -16 -16 -30 -21 -30 -5 0 -9 -6 -9 -13 0 -8 -9 -22
-20 -32 -24 -22 -26 -35 -4 -35 25 0 45 25 31 39 -8 8 -8 11 0 11 9 0 53 70
53 85 0 17 -20 0 -30 -25z"/>
<path d="M1630 3252 c0 -5 7 -15 15 -22 8 -7 15 -8 15 -2 0 5 -7 15 -15 22 -8
7 -15 8 -15 2z"/>
<path d="M1485 3205 c-33 -13 -51 -24 -40 -24 20 0 129 47 110 47 -5 1 -37
-10 -70 -23z"/>
<path d="M1008 3188 c-23 -20 -26 -28 -19 -58 4 -19 10 -30 14 -24 3 6 18 9
32 6 23 -4 25 -1 25 30 0 19 -6 42 -13 52 -12 16 -14 16 -39 -6z"/>
<path d="M359 3170 c-4 -26 14 -75 33 -86 13 -8 5 30 -16 80 -13 31 -13 31
-17 6z"/>
<path d="M1304 3083 c4 -7 2 -23 -5 -35 -7 -14 -11 -67 -10 -147 1 -69 -3
-259 -8 -421 -6 -162 -7 -311 -2 -330 4 -21 10 106 14 315 4 193 11 409 16
480 7 90 6 133 -1 140 -8 7 -9 6 -4 -2z"/>
<path d="M1190 2975 c0 -15 4 -24 10 -20 6 3 10 12 10 20 0 8 -4 17 -10 20 -6
4 -10 -5 -10 -20z"/>
<path d="M2388 2842 c-9 -15 -31 -40 -49 -57 l-33 -30 19 30 18 30 -25 -23
c-13 -12 -28 -19 -32 -15 -4 4 -4 -1 -1 -12 6 -16 3 -15 -14 5 -11 14 -21 20
-21 13 0 -6 5 -15 10 -18 6 -3 10 -11 10 -16 0 -6 -4 -7 -10 -4 -6 4 -10 -6
-10 -22 0 -16 -7 -39 -17 -52 -13 -19 -14 -29 -5 -55 18 -51 33 -212 33 -356
0 -86 5 -155 14 -189 16 -61 38 -95 31 -46 -21 129 -26 168 -23 172 3 2 7 -12
11 -30 4 -19 18 -63 32 -98 23 -56 25 -71 18 -129 -5 -36 -7 -72 -6 -80 2 -8
5 -80 7 -160 3 -80 10 -187 16 -239 13 -103 8 -201 -15 -288 -8 -32 -18 -85
-22 -118 -4 -33 -9 -54 -11 -47 -8 21 -21 13 -32 -18 -9 -26 -8 -30 6 -28 20
4 43 -36 43 -74 0 -38 10 -58 25 -52 10 4 13 -5 12 -39 -1 -25 -5 -43 -9 -40
-17 10 -7 -10 15 -28 21 -19 21 -20 1 -10 -20 9 -22 7 -27 -22 -5 -27 3 -44
44 -104 27 -39 49 -77 50 -85 0 -7 13 15 29 50 21 45 37 65 57 73 15 6 23 13
16 16 -15 5 -6 31 19 59 24 26 35 89 18 99 -14 9 -32 -14 -23 -29 3 -5 2 -6
-4 -3 -6 4 -15 -4 -21 -18 -8 -18 -8 -25 1 -29 7 -2 4 -5 -5 -5 -21 -1 -21 0
-8 34 5 14 6 24 1 21 -4 -3 -14 -26 -21 -51 -8 -28 -18 -45 -28 -45 -12 0 -12
3 -2 15 7 9 10 19 6 22 -4 4 -11 1 -15 -6 -11 -17 -31 -6 -31 17 0 14 -2 15
-9 3 -8 -12 -12 -12 -25 -2 -14 11 -14 17 1 52 14 37 14 41 -1 58 -16 17 -15
19 24 29 29 7 40 7 40 -2 0 -8 2 -8 8 0 4 7 18 8 39 2 24 -6 30 -12 26 -27 -3
-11 -16 -22 -30 -26 -16 -4 -23 -11 -19 -20 3 -8 1 -17 -4 -20 -17 -10 -32
-45 -20 -45 5 0 10 6 10 14 0 8 4 16 9 18 5 2 11 10 13 18 2 8 14 17 28 20 16
3 25 12 26 26 2 42 17 104 79 329 71 255 95 413 94 600 0 109 0 110 -16 73 -8
-21 -19 -38 -24 -38 -15 0 -10 18 17 70 23 44 25 57 18 98 -5 26 -7 55 -6 65
1 10 -2 16 -6 13 -4 -2 -6 40 -4 95 3 55 1 137 -3 183 l-7 83 -86 -38 c-89
-39 -169 -56 -234 -51 -35 3 -37 5 -28 28 9 24 -4 64 -21 64 -4 0 -5 8 -2 19
3 11 -2 21 -11 24 -16 6 -10 42 15 88 25 46 17 68 -11 29 -17 -24 -34 -5 -19
22 11 21 4 38 -16 38 -24 0 -7 42 32 81 52 50 61 63 85 115 22 52 20 67 -4 26z
m307 -921 c-3 -6 -11 -11 -16 -11 -5 0 -4 6 3 14 14 16 24 13 13 -3z m-78 -97
c-3 -3 -12 -4 -19 -1 -8 3 -5 6 6 6 11 1 17 -2 13 -5z m38 -34 c8 -13 -15 -13
-35 0 -12 8 -11 10 7 10 12 0 25 -4 28 -10z m-75 -420 c0 -5 -4 -12 -10 -15
-5 -3 -10 -4 -10 -1 0 2 -3 12 -6 20 -5 12 -2 15 10 10 9 -3 16 -10 16 -14z
m-40 -162 c-1 -19 -60 -85 -60 -67 0 12 48 79 58 79 1 0 2 -6 2 -12z m-30
-106 c0 -13 -12 -22 -22 -16 -10 6 -1 24 13 24 5 0 9 -4 9 -8z m-79 -439 c13
-16 12 -17 -3 -4 -17 13 -22 21 -14 21 2 0 10 -8 17 -17z"/>
<path d="M1065 2770 c-10 -11 -14 -20 -8 -20 5 0 18 9 28 20 10 11 14 20 8 20
-5 0 -18 -9 -28 -20z"/>
<path d="M2295 2650 c-3 -5 -1 -10 4 -10 6 0 11 5 11 10 0 6 -2 10 -4 10 -3 0
-8 -4 -11 -10z"/>
<path d="M945 2630 c-22 -24 -18 -45 34 -183 23 -60 41 -118 41 -129 0 -12 12
-92 26 -177 24 -141 43 -207 65 -221 4 -3 10 -45 14 -94 5 -64 14 -102 31
-135 21 -41 24 -43 24 -19 0 15 -7 46 -16 68 -16 38 -15 53 2 140 5 23 0 54
-14 100 -63 195 -92 320 -92 398 0 58 -34 152 -55 152 -8 0 -11 8 -8 20 3 10
-4 32 -15 47 -10 15 -17 34 -15 41 7 17 -1 15 -22 -8z"/>
<path d="M328 2625 c-3 -5 -9 -26 -12 -45 l-7 -35 16 29 c14 27 18 75 3 51z"/>
<path d="M1490 2329 c0 -9 9 -24 20 -34 26 -23 26 -8 0 25 -14 18 -20 21 -20
9z"/>
<path d="M851 2288 c-9 -24 -3 -39 51 -135 33 -59 63 -110 66 -113 13 -13 -56
178 -86 235 l-20 40 -11 -27z"/>
<path d="M1282 1960 c0 -14 2 -19 5 -12 2 6 2 18 0 25 -3 6 -5 1 -5 -13z"/>
<path d="M1283 1830 c0 -41 2 -58 4 -37 2 20 2 54 0 75 -2 20 -4 3 -4 -38z"/>
<path d="M1156 1550 c7 -28 12 -35 18 -29 2 2 -2 15 -10 29 l-15 25 7 -25z"/>
<path d="M1280 1490 c-2 -47 -3 -137 -2 -200 1 -63 3 -257 5 -430 2 -173 6
-333 9 -355 7 -46 -1 -54 -52 -56 l-35 -1 27 -12 c15 -6 38 -22 51 -34 12 -12
37 -23 54 -25 18 -2 39 -9 47 -17 14 -11 16 -8 16 28 0 22 -12 113 -26 203
-60 383 -63 414 -69 664 -7 270 -19 387 -25 235z"/>
<path d="M512 1150 c0 -14 2 -19 5 -12 2 6 2 18 0 25 -3 6 -5 1 -5 -13z"/>
<path d="M498 964 c-4 -135 -2 -164 9 -175 6 -6 9 36 7 121 -2 150 -13 187
-16 54z"/>
<path d="M2442 800 c0 -14 2 -19 5 -12 2 6 2 18 0 25 -3 6 -5 1 -5 -13z"/>
<path d="M2416 774 c-4 -9 -4 -19 -1 -22 2 -3 7 3 11 12 4 9 4 19 1 22 -2 3
-7 -3 -11 -12z"/>
<path d="M541 721 c7 -20 16 -30 25 -27 8 3 11 0 8 -9 -3 -7 4 -31 15 -54 19
-36 21 -58 21 -211 0 -118 3 -170 11 -170 7 0 9 -10 5 -27 -5 -19 -4 -23 3
-14 7 11 10 10 13 -5 5 -18 5 -18 13 0 4 10 4 21 -2 25 -16 10 -33 48 -33 73
0 17 5 13 20 -20 17 -38 22 -42 40 -32 11 6 20 15 20 21 0 6 10 19 22 29 19
15 20 20 9 34 -7 9 -16 14 -20 12 -4 -3 -7 11 -7 30 0 29 3 33 19 28 16 -5 18
-2 12 18 -4 12 -11 28 -16 34 -4 5 -6 19 -3 30 3 13 -4 30 -20 47 -14 16 -26
34 -26 41 0 8 -7 16 -15 20 -8 3 -15 13 -15 21 0 9 -4 14 -9 11 -10 -7 -25 22
-22 43 1 8 -2 10 -10 5 -8 -4 -10 -3 -5 4 5 9 17 8 44 -4 68 -29 67 -25 -3 12
-38 20 -78 43 -88 52 -16 14 -16 13 -6 -17z"/>
<path d="M900 732 c0 -21 33 -72 47 -72 7 0 13 5 13 10 0 6 -7 10 -15 10 -8 0
-15 6 -15 13 0 18 -29 56 -30 39z"/>
<path d="M970 661 c0 -5 5 -13 10 -16 6 -3 10 -2 10 4 0 5 -4 13 -10 16 -5 3
-10 2 -10 -4z"/>
<path d="M2290 624 c0 -6 7 -19 15 -30 8 -10 14 -14 14 -9 0 6 -6 19 -14 29
-8 11 -15 15 -15 10z"/>
<path d="M1410 293 c4 -21 14 -54 22 -73 9 -19 13 -42 11 -50 -3 -11 -2 -12 5
-2 5 7 16 10 25 6 10 -3 17 -1 17 6 0 6 -4 9 -9 6 -15 -9 -27 16 -42 82 -7 34
-18 62 -25 62 -8 0 -9 -11 -4 -37z"/>
<path d="M631 83 l-1 -83 26 0 c17 0 24 5 22 13 -10 25 -37 113 -41 132 -3 11
-5 -17 -6 -62z"/>
<path d="M1670 110 c0 -5 9 -14 20 -20 11 -6 20 -9 20 -8 0 2 -9 11 -20 21
-11 9 -20 13 -20 7z"/>
<path d="M1506 100 c4 -8 21 -34 37 -57 26 -37 35 -43 66 -43 l36 0 -40 34
c-22 19 -43 32 -47 29 -5 -2 -8 1 -8 8 0 7 -3 10 -6 6 -4 -3 -15 4 -26 16 -11
12 -16 15 -12 7z"/>
</g>
</svg>
